<?xml version="1.0" standalone="no"?>
<!DOCTYPE svg PUBLIC "-//W3C//DTD SVG 20010904//EN"
 "http://www.w3.org/TR/2001/REC-SVG-20010904/DTD/svg10.dtd">
<svg version="1.0" xmlns="http://www.w3.org/2000/svg"
 width="592.000000pt" height="417.000000pt" viewBox="0 0 592.000000 417.000000"
 preserveAspectRatio="xMidYMid meet">

<g transform="translate(0.000000,417.000000) scale(0.100000,-0.100000)"
fill="#966FD6" stroke="none">
<path d="M4105 4043 c-139 -13 -317 -63 -440 -126 -33 -16 -141 -78 -240 -137
-204 -122 -252 -147 -361 -190 -252 -101 -498 -113 -874 -44 -245 45 -350 77
-680 209 -294 118 -336 129 -470 129 -83 0 -118 -5 -170 -23 -216 -75 -393
-262 -546 -576 -207 -426 -245 -861 -117 -1369 103 -413 318 -775 649 -1096
197 -191 381 -325 569 -416 259 -126 436 -136 612 -34 28 16 115 88 192 159
202 185 283 226 446 225 161 -1 250 -41 590 -264 294 -192 384 -235 588 -279
530 -114 1041 32 1235 353 95 156 124 324 152 892 18 363 44 449 240 800 289
514 319 686 175 987 -83 174 -225 322 -459 478 -350 233 -755 353 -1091 322z"/>
</g>
</svg>
