<?xml version="1.0" standalone="no"?>
<!DOCTYPE svg PUBLIC "-//W3C//DTD SVG 20010904//EN"
 "http://www.w3.org/TR/2001/REC-SVG-20010904/DTD/svg10.dtd">
<svg version="1.0" xmlns="http://www.w3.org/2000/svg"
 width="1062.000000pt" height="846.000000pt" viewBox="0 0 1062.000000 846.000000"
 preserveAspectRatio="xMidYMid meet">

<g transform="translate(0.000000,846.000000) scale(0.100000,-0.100000)"
fill="#966FD6" stroke="none">
<path d="M5790 8330 c-178 -8 -276 -19 -440 -51 -468 -90 -914 -284 -1283
-556 -135 -100 -364 -332 -445 -451 -175 -256 -249 -528 -208 -762 33 -185 93
-332 290 -705 149 -282 184 -418 135 -525 -27 -61 -53 -87 -121 -121 -138 -70
-259 -81 -876 -80 -513 1 -708 -6 -877 -35 -445 -74 -1004 -318 -1350 -589
-180 -141 -352 -347 -427 -512 -40 -88 -78 -241 -78 -312 1 -566 766 -1479
1755 -2094 393 -244 892 -497 1290 -655 347 -138 1152 -353 1755 -471 436 -85
996 -163 1360 -191 746 -55 1734 -82 1985 -52 347 41 605 106 942 238 568 222
922 472 1059 749 84 170 83 314 -2 486 -61 121 -148 229 -381 474 -342 359
-441 485 -553 710 -115 231 -177 477 -187 745 -10 252 26 412 128 576 64 101
183 225 297 307 44 32 152 100 239 152 347 206 451 283 548 406 115 148 165
300 165 507 0 212 -46 387 -170 637 -142 288 -349 566 -630 845 -377 376 -632
528 -1270 758 -443 160 -1127 400 -1225 431 -246 75 -468 120 -690 141 -120
11 -475 11 -735 0z"/>
</g>
</svg>
