<?xml version="1.0" standalone="no"?>
<!DOCTYPE svg PUBLIC "-//W3C//DTD SVG 20010904//EN"
 "http://www.w3.org/TR/2001/REC-SVG-20010904/DTD/svg10.dtd">
<svg version="1.0" xmlns="http://www.w3.org/2000/svg"
 width="816.000000pt" height="493.000000pt" viewBox="0 0 816.000000 493.000000"
 preserveAspectRatio="xMidYMid meet">

<g transform="translate(0.000000,493.000000) scale(0.100000,-0.100000)"
fill="#966FD6" stroke="none">
<path d="M3620 4855 c-8 -2 -49 -9 -90 -15 -96 -16 -225 -61 -320 -112 -108
-58 -208 -130 -435 -312 -297 -237 -416 -311 -611 -379 -99 -35 -197 -58 -329
-77 -38 -6 -257 -17 -485 -25 -512 -17 -621 -35 -776 -120 -342 -191 -461
-724 -294 -1320 120 -425 376 -813 671 -1015 154 -106 378 -202 639 -274 30
-8 196 -49 367 -90 514 -123 794 -209 1064 -324 63 -27 260 -119 439 -204 384
-184 544 -253 740 -318 392 -131 860 -200 1349 -200 879 0 1510 259 1992 818
179 208 314 430 381 625 28 80 32 106 32 197 1 129 -20 185 -96 255 -94 89
-227 130 -468 145 -145 9 -170 8 -647 -16 -372 -19 -802 -15 -928 9 -351 67
-538 200 -616 439 -34 103 -32 277 5 478 68 374 81 543 51 711 -39 224 -152
427 -350 624 -245 245 -549 407 -894 476 -86 17 -352 34 -391 24z"/>
</g>
</svg>
