<?xml version="1.0" standalone="no"?>
<!DOCTYPE svg PUBLIC "-//W3C//DTD SVG 20010904//EN"
 "http://www.w3.org/TR/2001/REC-SVG-20010904/DTD/svg10.dtd">
<svg version="1.0" xmlns="http://www.w3.org/2000/svg"
 width="1030.000000pt" height="559.000000pt" viewBox="0 0 1030.000000 559.000000"
 preserveAspectRatio="xMidYMid meet">

<g transform="translate(0.000000,559.000000) scale(0.100000,-0.100000)"
fill="#966FD6" stroke="none">
<path d="M1885 5470 c-284 -61 -520 -199 -707 -413 -98 -113 -181 -231 -340
-485 -123 -198 -214 -329 -428 -622 -166 -226 -249 -390 -281 -549 -18 -93 -6
-318 25 -467 137 -656 546 -1353 1122 -1914 285 -278 525 -453 809 -591 318
-154 579 -231 1035 -305 158 -25 647 -31 847 -10 201 21 364 50 553 96 209 52
333 97 535 192 391 185 473 217 655 256 304 66 585 50 1005 -58 438 -113 519
-132 645 -150 153 -23 437 -27 566 -9 127 17 263 56 352 100 219 109 563 353
847 602 139 122 444 417 456 441 6 11 -31 -19 -82 -69 -57 -55 -40 -35 42 50
75 77 169 178 209 225 40 47 77 85 83 85 31 0 234 292 296 426 78 166 92 325
40 439 -105 227 -458 399 -944 460 -242 31 -727 28 -897 -4 -41 -8 -198 -51
-349 -95 -151 -44 -312 -89 -359 -100 -394 -93 -603 -66 -785 101 -121 111
-211 273 -365 658 -152 381 -263 581 -412 746 -244 270 -562 491 -868 604
-264 97 -601 128 -828 75 -132 -31 -163 -41 -381 -122 -283 -105 -422 -132
-576 -113 -166 21 -260 65 -555 260 -224 149 -343 212 -470 250 -109 33 -367
38 -495 10z m1628 -577 c-7 -2 -19 -2 -25 0 -7 3 -2 5 12 5 14 0 19 -2 13 -5z
m5787 -3567 c0 -2 -8 -10 -17 -17 -16 -13 -17 -12 -4 4 13 16 21 21 21 13z"/>
</g>
</svg>
