<?xml version="1.0" standalone="no"?>
<!DOCTYPE svg PUBLIC "-//W3C//DTD SVG 20010904//EN"
 "http://www.w3.org/TR/2001/REC-SVG-20010904/DTD/svg10.dtd">
<svg version="1.0" xmlns="http://www.w3.org/2000/svg"
 width="416.000000pt" height="493.000000pt" viewBox="0 0 416.000000 493.000000"
 preserveAspectRatio="xMidYMid meet">

<g transform="translate(0.000000,493.000000) scale(0.100000,-0.100000)"
fill="#966FD6" stroke="none">
<path d="M2663 4886 c-88 -22 -164 -66 -234 -135 -134 -135 -186 -279 -244
-676 -71 -483 -106 -605 -173 -605 -46 0 -103 50 -230 202 -192 231 -290 323
-415 392 -172 95 -369 107 -590 36 -118 -38 -206 -90 -283 -165 -80 -79 -109
-140 -109 -225 1 -127 66 -228 395 -615 383 -449 488 -623 436 -723 -26 -50
-69 -57 -274 -42 -318 23 -436 -5 -565 -136 -135 -136 -217 -350 -217 -564 0
-291 137 -469 414 -540 74 -19 122 -26 456 -65 238 -29 387 -68 529 -140 188
-94 281 -197 469 -520 83 -143 149 -233 197 -269 170 -130 311 -69 546 235
391 505 446 556 789 739 203 108 253 141 326 217 71 72 134 190 159 293 18 78
20 314 4 392 -6 29 -36 143 -66 253 -90 329 -153 619 -189 880 -22 156 -22
402 -1 620 10 94 19 191 22 217 7 79 -13 226 -44 314 -43 124 -109 224 -226
339 -154 152 -321 241 -540 286 -104 22 -263 24 -342 5z"/>
</g>
</svg>
