<?xml version="1.0" standalone="no"?>
<!DOCTYPE svg PUBLIC "-//W3C//DTD SVG 20010904//EN"
 "http://www.w3.org/TR/2001/REC-SVG-20010904/DTD/svg10.dtd">
<svg version="1.0" xmlns="http://www.w3.org/2000/svg"
 width="957.000000pt" height="789.000000pt" viewBox="0 0 957.000000 789.000000"
 preserveAspectRatio="xMidYMid meet">

<g transform="translate(0.000000,789.000000) scale(0.100000,-0.100000)"
   fill="#966FD6" stroke="none">
<path d="M5540 7579 c-818 -59 -1722 -331 -2359 -707 -64 -38 -181 -106 -261
-152 -623 -353 -1144 -823 -1231 -1112 -19 -61 -21 -87 -16 -201 10 -256 86
-434 383 -897 129 -201 213 -355 244 -446 80 -230 20 -388 -187 -496 -140 -74
-344 -131 -953 -268 -469 -106 -638 -168 -736 -272 -124 -131 -130 -332 -18
-601 118 -283 424 -685 839 -1102 693 -697 1179 -1032 1589 -1096 91 -15 302
-5 381 16 184 51 289 119 546 356 85 78 186 164 224 192 182 129 425 198 656
184 106 -7 138 -18 674 -227 143 -56 312 -121 375 -145 63 -24 165 -67 225
-95 473 -224 836 -312 1157 -281 217 21 397 71 593 165 436 209 734 533 831
901 23 87 27 120 27 255 0 171 -12 249 -64 398 -62 176 -153 314 -301 457
-150 145 -285 364 -329 532 -23 91 -28 248 -9 339 35 173 141 348 363 601 143
163 240 284 297 367 109 163 183 351 222 565 28 155 30 435 5 601 -95 618
-458 1254 -907 1588 -249 185 -358 252 -523 322 -292 123 -596 200 -972 246
-156 18 -589 26 -765 13z"/>
</g>
</svg>
