<svg class="svg-icon" style="width: 1em; height: 1em;vertical-align: middle;fill: currentColor;overflow: hidden;" viewBox="0 0 1024 1024" version="1.1" xmlns="http://www.w3.org/2000/svg"><path d="M778.24 204.8H245.76c-22.528 0-40.96 18.432-40.96 40.96v81.92c0 22.528 18.432 40.96 40.96 40.96h532.48c22.528 0 40.96-18.432 40.96-40.96v-81.92c0-22.528-18.432-40.96-40.96-40.96zM522.24 327.68v-81.92h256v81.92H522.24z m256 102.4H245.76c-22.528 0-40.96 18.432-40.96 40.96v81.92c0 22.528 18.432 40.96 40.96 40.96h532.48c22.528 0 40.96-18.432 40.96-40.96v-81.92c0-22.528-18.432-40.96-40.96-40.96zM430.08 552.96v-81.92h348.16v81.92H430.08z m348.16 102.4H245.76c-22.528 0-40.96 18.432-40.96 40.96v81.92c0 22.528 18.432 40.96 40.96 40.96h532.48c22.528 0 40.96-18.432 40.96-40.96v-81.92c0-22.528-18.432-40.96-40.96-40.96zM614.4 778.24v-81.92h163.84v81.92H614.4z"  /></svg>